<mxfile host="app.diagrams.net" modified="2023-08-17T02:55:23.803Z" agent="Mozilla/5.0 (Windows NT 10.0; Win64; x64) AppleWebKit/537.36 (KHTML, like Gecko) Chrome/115.0.0.0 Safari/537.36" version="21.6.8" etag="xuC1ZEz_Xhp-m8cIu_JZ" type="device">
  <diagram id="l_9h0uDrQ4hTbsfsAbHa" name="第 1 页">
    <mxGraphModel dx="3188" dy="1264" grid="1" gridSize="10" guides="1" tooltips="1" connect="1" arrows="1" fold="1" page="0" pageScale="1" pageWidth="827" pageHeight="1169" background="none" math="0" shadow="0">
      <root>
        <mxCell id="0" />
        <mxCell id="1" parent="0" />
        <mxCell id="node41" value="&lt;p style=&quot;margin:0px;margin-top:4px;text-align:center;&quot;&gt;&lt;b&gt;Commons.Modes.Singleton&lt;/b&gt;&lt;/p&gt;&lt;hr size=&quot;1&quot;/&gt;&lt;p style=&quot;margin:0 0 0 4px;line-height:1.6;&quot;&gt; _instances: &lt;br/&gt; _instances: &lt;/p&gt;" style="verticalAlign=top;align=left;overflow=fill;fontSize=14;fontFamily=Helvetica;html=1;rounded=0;shadow=0;comic=0;labelBackgroundColor=none;strokeWidth=1;" parent="1" vertex="1">
          <mxGeometry x="720" y="810" width="231" height="83" as="geometry" />
        </mxCell>
        <mxCell id="node36" value="&lt;p style=&quot;margin:0px;margin-top:4px;text-align:center;&quot;&gt;&lt;b&gt;Context.Context.BasicContext&lt;/b&gt;&lt;/p&gt;&lt;hr size=&quot;1&quot;/&gt;&lt;p style=&quot;margin:0 0 0 4px;line-height:1.6;&quot;&gt; _ctx: &lt;/p&gt;" style="verticalAlign=top;align=left;overflow=fill;fontSize=14;fontFamily=Helvetica;html=1;rounded=0;shadow=0;comic=0;labelBackgroundColor=none;strokeWidth=1;" parent="1" vertex="1">
          <mxGeometry x="1954" y="-1" width="242" height="58" as="geometry" />
        </mxCell>
        <mxCell id="node3" value="&lt;p style=&quot;margin:0px;margin-top:4px;text-align:center;&quot;&gt;&lt;b&gt;Parser.BasicDataTypes.DataSet&lt;/b&gt;&lt;/p&gt;&lt;hr size=&quot;1&quot;/&gt;&lt;p style=&quot;margin:0 0 0 4px;line-height:1.6;&quot;&gt; unitList: &lt;br/&gt; row: &lt;br/&gt; keyList: &lt;br/&gt; _col: &lt;/p&gt;" style="verticalAlign=top;align=left;overflow=fill;fontSize=14;fontFamily=Helvetica;html=1;rounded=0;shadow=0;comic=0;labelBackgroundColor=none;strokeWidth=1;" parent="1" vertex="1">
          <mxGeometry x="-850" y="220" width="248" height="133" as="geometry" />
        </mxCell>
        <mxCell id="node19" value="&lt;p style=&quot;margin:0px;margin-top:4px;text-align:center;&quot;&gt;&lt;b&gt;Parser.BasicDataTypes.DataUnit&lt;/b&gt;&lt;/p&gt;&lt;hr size=&quot;1&quot;/&gt;&lt;p style=&quot;margin:0 0 0 4px;line-height:1.6;&quot;&gt; properties: &lt;/p&gt;" style="verticalAlign=top;align=left;overflow=fill;fontSize=14;fontFamily=Helvetica;html=1;rounded=0;shadow=0;comic=0;labelBackgroundColor=none;strokeWidth=1;" parent="1" vertex="1">
          <mxGeometry x="-1180" y="227" width="256" height="58" as="geometry" />
        </mxCell>
        <mxCell id="node27" value="&lt;p style=&quot;margin:0px;margin-top:4px;text-align:center;&quot;&gt;&lt;b&gt;Parser.BasicDataTypes.Datagram&lt;/b&gt;&lt;/p&gt;&lt;hr size=&quot;1&quot;/&gt;&lt;p style=&quot;margin:0 0 0 4px;line-height:1.6;&quot;&gt; offsetInPassword: &lt;br/&gt; pwStr: &lt;br/&gt; label: &lt;br/&gt; offsetInSegment: &lt;br/&gt; sectionList: &lt;/p&gt;" style="verticalAlign=top;align=left;overflow=fill;fontSize=14;fontFamily=Helvetica;html=1;rounded=0;shadow=0;comic=0;labelBackgroundColor=none;strokeWidth=1;" parent="1" vertex="1">
          <mxGeometry x="682" y="209" width="263" height="146" as="geometry" />
        </mxCell>
        <mxCell id="node7" value="&lt;p style=&quot;margin:0px;margin-top:4px;text-align:center;&quot;&gt;&lt;b&gt;Parser.BasicDataTypes.Password&lt;/b&gt;&lt;/p&gt;&lt;hr size=&quot;1&quot;/&gt;&lt;p style=&quot;margin:0 0 0 4px;line-height:1.6;&quot;&gt; datagramList: &lt;br/&gt; pwStr: &lt;/p&gt;" style="verticalAlign=top;align=left;overflow=fill;fontSize=14;fontFamily=Helvetica;html=1;rounded=0;shadow=0;comic=0;labelBackgroundColor=none;strokeWidth=1;" parent="1" vertex="1">
          <mxGeometry x="314.5" y="230.5" width="259" height="83" as="geometry" />
        </mxCell>
        <mxCell id="node6" value="&lt;p style=&quot;margin:0px;margin-top:4px;text-align:center;&quot;&gt;&lt;b&gt;Parser.BasicDataTypes.Section&lt;/b&gt;&lt;/p&gt;&lt;hr size=&quot;1&quot;/&gt;&lt;p style=&quot;margin:0 0 0 4px;line-height:1.6;&quot;&gt; keyboardPos: &lt;br/&gt; type: &lt;br/&gt; value: &lt;/p&gt;" style="verticalAlign=top;align=left;overflow=fill;fontSize=14;fontFamily=Helvetica;html=1;rounded=0;shadow=0;comic=0;labelBackgroundColor=none;strokeWidth=1;" parent="1" vertex="1">
          <mxGeometry x="1100" y="209" width="246" height="108" as="geometry" />
        </mxCell>
        <mxCell id="node14" value="&lt;p style=&quot;margin:0px;margin-top:4px;text-align:center;&quot;&gt;&lt;b&gt;Parser.BasicParsers.BasicParser&lt;/b&gt;&lt;/p&gt;&lt;hr size=&quot;1&quot;/&gt;&lt;p style=&quot;margin:0 0 0 4px;line-height:1.6;&quot;&gt; featureList: &lt;br/&gt; plen: &lt;br/&gt; labelList: &lt;br/&gt; datagramList: &lt;br/&gt; context: &lt;br/&gt; pwStr: &lt;/p&gt;" style="verticalAlign=top;align=left;overflow=fill;fontSize=14;fontFamily=Helvetica;html=1;rounded=0;shadow=0;comic=0;labelBackgroundColor=none;strokeWidth=1;" parent="1" vertex="1">
          <mxGeometry x="1500" y="197" width="246" height="169" as="geometry" />
        </mxCell>
        <mxCell id="node4" value="&lt;p style=&quot;margin:0px;margin-top:4px;text-align:center;&quot;&gt;&lt;b&gt;Parser.BasicPreprocessor.BasicPreProcessor&lt;/b&gt;&lt;/p&gt;&lt;hr size=&quot;1&quot;/&gt;&lt;p style=&quot;margin:0 0 0 4px;line-height:1.6;&quot;&gt; charset: &lt;/p&gt;" style="verticalAlign=top;align=left;overflow=fill;fontSize=14;fontFamily=Helvetica;html=1;rounded=0;shadow=0;comic=0;labelBackgroundColor=none;strokeWidth=1;" parent="1" vertex="1">
          <mxGeometry x="-399" y="255" width="334" height="58" as="geometry" />
        </mxCell>
        <mxCell id="node25" value="&lt;p style=&quot;margin:0px;margin-top:4px;text-align:center;&quot;&gt;&lt;b&gt;Parser.BasicPreprocessor.DatabasePreProcessor&lt;/b&gt;&lt;/p&gt;&lt;hr size=&quot;1&quot;/&gt;&lt;p style=&quot;margin:0 0 0 4px;line-height:1.6;&quot;&gt; start: &lt;br/&gt; limit: &lt;br/&gt; baseUnitList: &lt;br/&gt; dataset: &lt;/p&gt;" style="verticalAlign=top;align=left;overflow=fill;fontSize=14;fontFamily=Helvetica;html=1;rounded=0;shadow=0;comic=0;labelBackgroundColor=none;strokeWidth=1;" parent="1" vertex="1">
          <mxGeometry x="-583" y="556" width="363" height="133" as="geometry" />
        </mxCell>
        <mxCell id="node18" value="&lt;p style=&quot;margin:0px;margin-top:4px;text-align:center;&quot;&gt;&lt;b&gt;Parser.BasicPreprocessor.FilePreProcessor&lt;/b&gt;&lt;/p&gt;&lt;hr size=&quot;1&quot;/&gt;&lt;p style=&quot;margin:0 0 0 4px;line-height:1.6;&quot;&gt; charset: &lt;br/&gt; savePath: &lt;br/&gt; filePath: &lt;br/&gt; start: &lt;br/&gt; limit: &lt;br/&gt; titleList: &lt;br/&gt; lines: &lt;br/&gt; dataset: &lt;/p&gt;" style="verticalAlign=top;align=left;overflow=fill;fontSize=14;fontFamily=Helvetica;html=1;rounded=0;shadow=0;comic=0;labelBackgroundColor=none;strokeWidth=1;" parent="1" vertex="1">
          <mxGeometry x="-200" y="510" width="322" height="215" as="geometry" />
        </mxCell>
        <mxCell id="node32" value="&lt;p style=&quot;margin:0px;margin-top:4px;text-align:center;&quot;&gt;&lt;b&gt;Parser.PIIDataTypes.PIIDataSet&lt;/b&gt;&lt;/p&gt;&lt;hr size=&quot;1&quot;/&gt;&lt;p style=&quot;margin:0 0 0 4px;line-height:1.6;&quot;&gt; keyList: &lt;/p&gt;" style="verticalAlign=top;align=left;overflow=fill;fontSize=14;fontFamily=Helvetica;html=1;rounded=0;shadow=0;comic=0;labelBackgroundColor=none;strokeWidth=1;" parent="1" vertex="1">
          <mxGeometry x="-850" y="563.5" width="246" height="58" as="geometry" />
        </mxCell>
        <mxCell id="node13" value="&lt;p style=&quot;margin:0px;margin-top:4px;text-align:center;&quot;&gt;&lt;b&gt;Parser.PIIDataTypes.PIIDataUnit&lt;/b&gt;&lt;/p&gt;&lt;hr size=&quot;1&quot;/&gt;&lt;p style=&quot;margin:0 0 0 4px;line-height:1.6;&quot;&gt; pii: &lt;br/&gt; password: &lt;/p&gt;" style="verticalAlign=top;align=left;overflow=fill;fontSize=14;fontFamily=Helvetica;html=1;rounded=0;shadow=0;comic=0;labelBackgroundColor=none;strokeWidth=1;" parent="1" vertex="1">
          <mxGeometry x="-1179" y="551" width="254" height="83" as="geometry" />
        </mxCell>
        <mxCell id="node12" value="&lt;p style=&quot;margin:0px;margin-top:4px;text-align:center;&quot;&gt;&lt;b&gt;Parser.PIIDataTypes.PIIDatagram&lt;/b&gt;&lt;/p&gt;&lt;hr size=&quot;1&quot;/&gt;" style="verticalAlign=top;align=left;overflow=fill;fontSize=14;fontFamily=Helvetica;html=1;rounded=0;shadow=0;comic=0;labelBackgroundColor=none;strokeWidth=1;" parent="1" vertex="1">
          <mxGeometry x="684" y="591.5" width="259" height="30" as="geometry" />
        </mxCell>
        <mxCell id="node39" value="&lt;p style=&quot;margin:0px;margin-top:4px;text-align:center;&quot;&gt;&lt;b&gt;Parser.PIIDataTypes.PIIPassword&lt;/b&gt;&lt;/p&gt;&lt;hr size=&quot;1&quot;/&gt;" style="verticalAlign=top;align=left;overflow=fill;fontSize=14;fontFamily=Helvetica;html=1;rounded=0;shadow=0;comic=0;labelBackgroundColor=none;strokeWidth=1;" parent="1" vertex="1">
          <mxGeometry x="316.5" y="591.5" width="255" height="30" as="geometry" />
        </mxCell>
        <mxCell id="node23" value="&lt;p style=&quot;margin:0px;margin-top:4px;text-align:center;&quot;&gt;&lt;b&gt;Parser.PIIDataTypes.PIIRepresentation&lt;/b&gt;&lt;/p&gt;&lt;hr size=&quot;1&quot;/&gt;&lt;p style=&quot;margin:0 0 0 4px;line-height:1.6;&quot;&gt; len: &lt;br/&gt; piiVectorList: &lt;/p&gt;" style="verticalAlign=top;align=left;overflow=fill;fontSize=14;fontFamily=Helvetica;html=1;rounded=0;shadow=0;comic=0;labelBackgroundColor=none;strokeWidth=1;" parent="1" vertex="1">
          <mxGeometry x="-522.5" y="1086" width="297" height="83" as="geometry" />
        </mxCell>
        <mxCell id="node9" value="&lt;p style=&quot;margin:0px;margin-top:4px;text-align:center;&quot;&gt;&lt;b&gt;Parser.PIIDataTypes.PIISection&lt;/b&gt;&lt;/p&gt;&lt;hr size=&quot;1&quot;/&gt;" style="verticalAlign=top;align=left;overflow=fill;fontSize=14;fontFamily=Helvetica;html=1;rounded=0;shadow=0;comic=0;labelBackgroundColor=none;strokeWidth=1;" parent="1" vertex="1">
          <mxGeometry x="1104" y="591.5" width="242" height="30" as="geometry" />
        </mxCell>
        <mxCell id="node37" value="&lt;p style=&quot;margin:0px;margin-top:4px;text-align:center;&quot;&gt;&lt;b&gt;Parser.PIIDataTypes.PIIStructure&lt;/b&gt;&lt;/p&gt;&lt;hr size=&quot;1&quot;/&gt;&lt;p style=&quot;margin:0 0 0 4px;line-height:1.6;&quot;&gt; s: &lt;br/&gt; num: &lt;br/&gt; piiRepresentationList: &lt;/p&gt;" style="verticalAlign=top;align=left;overflow=fill;fontSize=14;fontFamily=Helvetica;html=1;rounded=0;shadow=0;comic=0;labelBackgroundColor=none;strokeWidth=1;" parent="1" vertex="1">
          <mxGeometry x="-915" y="1073.5" width="256" height="108" as="geometry" />
        </mxCell>
        <mxCell id="node29" value="&lt;p style=&quot;margin:0px;margin-top:4px;text-align:center;&quot;&gt;&lt;b&gt;Parser.PIIDataTypes.PIIVector&lt;/b&gt;&lt;/p&gt;&lt;hr size=&quot;1&quot;/&gt;&lt;p style=&quot;margin:0 0 0 4px;line-height:1.6;&quot;&gt; str: &lt;br/&gt; col: &lt;br/&gt; piitypevalue: &lt;br/&gt; piivalue: &lt;br/&gt; row: &lt;br/&gt; piitype: &lt;/p&gt;" style="verticalAlign=top;align=left;overflow=fill;fontSize=14;fontFamily=Helvetica;html=1;rounded=0;shadow=0;comic=0;labelBackgroundColor=none;strokeWidth=1;" parent="1" vertex="1">
          <mxGeometry x="-85.5" y="1043" width="237" height="169" as="geometry" />
        </mxCell>
        <mxCell id="node15" value="&lt;p style=&quot;margin:0px;margin-top:4px;text-align:center;&quot;&gt;&lt;b&gt;Parser.PIIDataTypes.PwRepAndStructureUnit&lt;/b&gt;&lt;/p&gt;&lt;hr size=&quot;1&quot;/&gt;&lt;p style=&quot;margin:0 0 0 4px;line-height:1.6;&quot;&gt; repStructure: &lt;br/&gt; pwStr: &lt;br/&gt; rep: &lt;/p&gt;" style="verticalAlign=top;align=left;overflow=fill;fontSize=14;fontFamily=Helvetica;html=1;rounded=0;shadow=0;comic=0;labelBackgroundColor=none;strokeWidth=1;" parent="1" vertex="1">
          <mxGeometry x="1083.5" y="1286.5" width="344" height="108" as="geometry" />
        </mxCell>
        <mxCell id="node8" value="&lt;p style=&quot;margin:0px;margin-top:4px;text-align:center;&quot;&gt;&lt;b&gt;Parser.PIIDataTypes.RepUnit&lt;/b&gt;&lt;/p&gt;&lt;hr size=&quot;1&quot;/&gt;&lt;p style=&quot;margin:0 0 0 4px;line-height:1.6;&quot;&gt; _hash: &lt;br/&gt; repHash: &lt;br/&gt; repStr: &lt;br/&gt; frequency: &lt;/p&gt;" style="verticalAlign=top;align=left;overflow=fill;fontSize=14;fontFamily=Helvetica;html=1;rounded=0;shadow=0;comic=0;labelBackgroundColor=none;strokeWidth=1;" parent="1" vertex="1">
          <mxGeometry x="1140" y="1123" width="231" height="133" as="geometry" />
        </mxCell>
        <mxCell id="node26" value="&lt;p style=&quot;margin:0px;margin-top:4px;text-align:center;&quot;&gt;&lt;b&gt;Parser.PIIParsers.PIIFullTagParser&lt;/b&gt;&lt;/p&gt;&lt;hr size=&quot;1&quot;/&gt;&lt;p style=&quot;margin:0 0 0 4px;line-height:1.6;&quot;&gt; _tagContainer: &lt;br/&gt; _pii: &lt;br/&gt; _nameFuzz: &lt;/p&gt;" style="verticalAlign=top;align=left;overflow=fill;fontSize=14;fontFamily=Helvetica;html=1;rounded=0;shadow=0;comic=0;labelBackgroundColor=none;strokeWidth=1;" parent="1" vertex="1">
          <mxGeometry x="-811" y="1498" width="260" height="108" as="geometry" />
        </mxCell>
        <mxCell id="D26i1v6Gqlqpehpdv52o-15" style="edgeStyle=orthogonalEdgeStyle;rounded=0;orthogonalLoop=1;jettySize=auto;html=1;entryX=0.003;entryY=0.571;entryDx=0;entryDy=0;entryPerimeter=0;endSize=12;dashed=1;" edge="1" parent="1" source="node17" target="D26i1v6Gqlqpehpdv52o-13">
          <mxGeometry relative="1" as="geometry" />
        </mxCell>
        <mxCell id="node17" value="&lt;p style=&quot;margin:0px;margin-top:4px;text-align:center;&quot;&gt;&lt;b&gt;Parser.PIIParsers.PIIParser&lt;/b&gt;&lt;/p&gt;&lt;hr size=&quot;1&quot;/&gt;&lt;p style=&quot;margin:0 0 0 4px;line-height:1.6;&quot;&gt; datagramList: &lt;br/&gt; _pii: &lt;/p&gt;" style="verticalAlign=top;align=left;overflow=fill;fontSize=14;fontFamily=Helvetica;html=1;rounded=0;shadow=0;comic=0;labelBackgroundColor=none;strokeWidth=1;" parent="1" vertex="1">
          <mxGeometry x="1519" y="579" width="209" height="83" as="geometry" />
        </mxCell>
        <mxCell id="node30" value="&lt;p style=&quot;margin:0px;margin-top:4px;text-align:center;&quot;&gt;&lt;b&gt;Parser.PIIParsers.PIIRepresentationResolver&lt;/b&gt;&lt;/p&gt;&lt;hr size=&quot;1&quot;/&gt;&lt;p style=&quot;margin:0 0 0 4px;line-height:1.6;&quot;&gt; pwRepDict: &lt;br/&gt; pwAllRepDict: &lt;br/&gt; pwList: &lt;br/&gt; repPriorityList: &lt;/p&gt;" style="verticalAlign=top;align=left;overflow=fill;fontSize=14;fontFamily=Helvetica;html=1;rounded=0;shadow=0;comic=0;labelBackgroundColor=none;strokeWidth=1;" parent="1" vertex="1">
          <mxGeometry x="670" y="1123" width="331" height="133" as="geometry" />
        </mxCell>
        <mxCell id="node16" value="&lt;p style=&quot;margin:0px;margin-top:4px;text-align:center;&quot;&gt;&lt;b&gt;Parser.PIIParsers.PIIStructureParser&lt;/b&gt;&lt;/p&gt;&lt;hr size=&quot;1&quot;/&gt;&lt;p style=&quot;margin:0 0 0 4px;line-height:1.6;&quot;&gt; _pii: &lt;/p&gt;" style="verticalAlign=top;align=left;overflow=fill;fontSize=14;fontFamily=Helvetica;html=1;rounded=0;shadow=0;comic=0;labelBackgroundColor=none;strokeWidth=1;" parent="1" vertex="1">
          <mxGeometry x="-1260" y="1321" width="273" height="58" as="geometry" />
        </mxCell>
        <mxCell id="node34" value="&lt;p style=&quot;margin:0px;margin-top:4px;text-align:center;&quot;&gt;&lt;b&gt;Parser.PIIParsers.PIITagContainer&lt;/b&gt;&lt;/p&gt;&lt;hr size=&quot;1&quot;/&gt;&lt;p style=&quot;margin:0 0 0 4px;line-height:1.6;&quot;&gt; _tagList: &lt;br/&gt; _tagDict: &lt;br/&gt; _pii: &lt;br/&gt; _nameFuzz: &lt;/p&gt;" style="verticalAlign=top;align=left;overflow=fill;fontSize=14;fontFamily=Helvetica;html=1;rounded=0;shadow=0;comic=0;labelBackgroundColor=none;strokeWidth=1;" parent="1" vertex="1">
          <mxGeometry x="-813" y="1258.5" width="262" height="133" as="geometry" />
        </mxCell>
        <mxCell id="node33" value="&lt;p style=&quot;margin:0px;margin-top:4px;text-align:center;&quot;&gt;&lt;b&gt;Parser.PIIParsers.PIITagRepresentationStrParser&lt;/b&gt;&lt;/p&gt;&lt;hr size=&quot;1&quot;/&gt;&lt;p style=&quot;margin:0 0 0 4px;line-height:1.6;&quot;&gt; translation: &lt;br/&gt; reTranslation: &lt;/p&gt;" style="verticalAlign=top;align=left;overflow=fill;fontSize=14;fontFamily=Helvetica;html=1;rounded=0;shadow=0;comic=0;labelBackgroundColor=none;strokeWidth=1;" parent="1" vertex="1">
          <mxGeometry x="-554" y="910" width="360" height="83" as="geometry" />
        </mxCell>
        <mxCell id="D26i1v6Gqlqpehpdv52o-35" style="edgeStyle=orthogonalEdgeStyle;rounded=0;orthogonalLoop=1;jettySize=auto;html=1;entryX=-0.006;entryY=0.456;entryDx=0;entryDy=0;entryPerimeter=0;dashed=1;endSize=12;endArrow=open;endFill=0;" edge="1" parent="1" source="node31" target="D26i1v6Gqlqpehpdv52o-31">
          <mxGeometry relative="1" as="geometry" />
        </mxCell>
        <mxCell id="node31" value="&lt;p style=&quot;margin:0px;margin-top:4px;text-align:center;&quot;&gt;&lt;b&gt;Parser.PIIParsers.PIIToTagParser&lt;/b&gt;&lt;/p&gt;&lt;hr size=&quot;1&quot;/&gt;" style="verticalAlign=top;align=left;overflow=fill;fontSize=14;fontFamily=Helvetica;html=1;rounded=0;shadow=0;comic=0;labelBackgroundColor=none;strokeWidth=1;" parent="1" vertex="1">
          <mxGeometry x="-450" y="1537" width="251" height="30" as="geometry" />
        </mxCell>
        <mxCell id="node0" value="&lt;p style=&quot;margin:0px;margin-top:4px;text-align:center;&quot;&gt;&lt;b&gt;Parser.PIIParsers.Tag&lt;/b&gt;&lt;/p&gt;&lt;hr size=&quot;1&quot;/&gt;&lt;p style=&quot;margin:0 0 0 4px;line-height:1.6;&quot;&gt; s: &lt;br/&gt; piivalue: &lt;br/&gt; piitype: &lt;/p&gt;" style="verticalAlign=top;align=left;overflow=fill;fontSize=14;fontFamily=Helvetica;html=1;rounded=0;shadow=0;comic=0;labelBackgroundColor=none;strokeWidth=1;" parent="1" vertex="1">
          <mxGeometry x="-45" y="1271" width="176" height="108" as="geometry" />
        </mxCell>
        <mxCell id="node22" value="&lt;p style=&quot;margin:0px;margin-top:4px;text-align:center;&quot;&gt;&lt;b&gt;Parser.PIIPreprocessor.PIIPreprocessor&lt;/b&gt;&lt;/p&gt;&lt;hr size=&quot;1&quot;/&gt;&lt;p style=&quot;margin:0 0 0 4px;line-height:1.6;&quot;&gt; dataset: &lt;/p&gt;" style="verticalAlign=top;align=left;overflow=fill;fontSize=14;fontFamily=Helvetica;html=1;rounded=0;shadow=0;comic=0;labelBackgroundColor=none;strokeWidth=1;" parent="1" vertex="1">
          <mxGeometry x="-550" y="775" width="297" height="58" as="geometry" />
        </mxCell>
        <mxCell id="node20" value="&lt;p style=&quot;margin:0px;margin-top:4px;text-align:center;&quot;&gt;&lt;b&gt;Parser.PasswordParsers.CharacterVector&lt;/b&gt;&lt;/p&gt;&lt;hr size=&quot;1&quot;/&gt;&lt;p style=&quot;margin:0 0 0 4px;line-height:1.6;&quot;&gt; serialNum: &lt;br/&gt; _ch: &lt;br/&gt; keyboardPos: &lt;br/&gt; context: &lt;br/&gt; type: &lt;/p&gt;" style="verticalAlign=top;align=left;overflow=fill;fontSize=14;fontFamily=Helvetica;html=1;rounded=0;shadow=0;comic=0;labelBackgroundColor=none;strokeWidth=1;" parent="1" vertex="1">
          <mxGeometry x="1766" y="209" width="311" height="146" as="geometry" />
        </mxCell>
        <mxCell id="node5" value="&lt;p style=&quot;margin:0px;margin-top:4px;text-align:center;&quot;&gt;&lt;b&gt;Parser.PasswordParsers.Datagram&lt;/b&gt;&lt;/p&gt;&lt;hr size=&quot;1&quot;/&gt;&lt;p style=&quot;margin:0 0 0 4px;line-height:1.6;&quot;&gt; _validFeatureLen: &lt;br/&gt; _lp: &lt;br/&gt; nextCh: &lt;br/&gt; index: &lt;br/&gt; _plen: &lt;br/&gt; label: &lt;br/&gt; _cp: &lt;br/&gt; _sub: &lt;br/&gt; featureList: &lt;br/&gt; _offsetInPassword: &lt;br/&gt; _password: &lt;br/&gt; _offsetInSegment: &lt;br/&gt; context: &lt;br/&gt; order: &lt;/p&gt;" style="verticalAlign=top;align=left;overflow=fill;fontSize=14;fontFamily=Helvetica;html=1;rounded=0;shadow=0;comic=0;labelBackgroundColor=none;strokeWidth=1;" parent="1" vertex="1">
          <mxGeometry x="2381" y="105" width="268" height="353" as="geometry" />
        </mxCell>
        <mxCell id="node24" value="&lt;p style=&quot;margin:0px;margin-top:4px;text-align:center;&quot;&gt;&lt;b&gt;Parser.PasswordParsers.Password&lt;/b&gt;&lt;/p&gt;&lt;hr size=&quot;1&quot;/&gt;&lt;p style=&quot;margin:0 0 0 4px;line-height:1.6;&quot;&gt; datagramList: &lt;br/&gt; _password: &lt;br/&gt; context: &lt;br/&gt; _plen: &lt;br/&gt; _segmentList: &lt;/p&gt;" style="verticalAlign=top;align=left;overflow=fill;fontSize=14;fontFamily=Helvetica;html=1;rounded=0;shadow=0;comic=0;labelBackgroundColor=none;strokeWidth=1;" parent="1" vertex="1">
          <mxGeometry x="2097" y="209" width="264" height="146" as="geometry" />
        </mxCell>
        <mxCell id="D26i1v6Gqlqpehpdv52o-8" style="edgeStyle=orthogonalEdgeStyle;rounded=0;orthogonalLoop=1;jettySize=auto;html=1;exitX=0.5;exitY=1;exitDx=0;exitDy=0;entryX=0.5;entryY=0;entryDx=0;entryDy=0;dashed=1;startArrow=none;startFill=0;endSize=12;" edge="1" parent="1" source="node40" target="node19">
          <mxGeometry relative="1" as="geometry">
            <mxPoint x="-300" y="100" as="targetPoint" />
            <Array as="points">
              <mxPoint x="534" y="80" />
              <mxPoint x="-1052" y="80" />
            </Array>
          </mxGeometry>
        </mxCell>
        <mxCell id="node40" value="&lt;p style=&quot;margin:0px;margin-top:4px;text-align:center;&quot;&gt;&lt;b&gt;abc.ABCMeta&lt;/b&gt;&lt;/p&gt;&lt;hr size=&quot;1&quot;/&gt;&lt;p style=&quot;margin:0 0 0 4px;line-height:1.6;&quot;&gt; cls: &lt;/p&gt;" style="verticalAlign=top;align=left;overflow=fill;fontSize=14;fontFamily=Helvetica;html=1;rounded=0;shadow=0;comic=0;labelBackgroundColor=none;strokeWidth=1;" parent="1" vertex="1">
          <mxGeometry x="469" y="-1" width="130" height="58" as="geometry" />
        </mxCell>
        <mxCell id="node1" value="&lt;p style=&quot;margin:0px;margin-top:4px;text-align:center;&quot;&gt;&lt;b&gt;typing.Iterable&lt;/b&gt;&lt;/p&gt;&lt;hr size=&quot;1&quot;/&gt;" style="verticalAlign=top;align=left;overflow=fill;fontSize=14;fontFamily=Helvetica;html=1;rounded=0;shadow=0;comic=0;labelBackgroundColor=none;strokeWidth=1;" parent="1" vertex="1">
          <mxGeometry x="-793" y="12" width="135" height="30" as="geometry" />
        </mxCell>
        <mxCell id="edge20" value="" style="html=1;rounded=1;edgeStyle=orthogonalEdgeStyle;dashed=1;startArrow=classic;startSize=12;endArrow=none;strokeColor=#595959;exitX=0.500;exitY=0.000;exitDx=0;exitDy=0;entryX=0.500;entryY=1.001;entryDx=0;entryDy=0;" parent="1" source="node3" target="node40" edge="1">
          <mxGeometry width="50" height="50" relative="1" as="geometry">
            <Array as="points">
              <mxPoint x="-726" y="74" />
              <mxPoint x="534" y="74" />
            </Array>
          </mxGeometry>
        </mxCell>
        <mxCell id="label124" value="isinstanceof" style="edgeLabel;resizable=0;html=1;align=left;verticalAlign=top;strokeColor=default;" parent="edge20" vertex="1" connectable="0">
          <mxGeometry x="499" y="54" as="geometry" />
        </mxCell>
        <mxCell id="edge21" value="" style="html=1;rounded=1;edgeStyle=orthogonalEdgeStyle;dashed=1;startArrow=block;startSize=12;endArrow=none;strokeColor=#595959;exitX=0.500;exitY=0.000;exitDx=0;exitDy=0;entryX=0.500;entryY=1.002;entryDx=0;entryDy=0;" parent="1" source="node3" target="node1" edge="1">
          <mxGeometry width="50" height="50" relative="1" as="geometry">
            <Array as="points" />
          </mxGeometry>
        </mxCell>
        <mxCell id="edge15" value="" style="html=1;rounded=1;edgeStyle=orthogonalEdgeStyle;dashed=1;startArrow=classic;startSize=12;endArrow=none;strokeColor=#595959;exitX=0.500;exitY=0.000;exitDx=0;exitDy=0;entryX=0.500;entryY=1.001;entryDx=0;entryDy=0;" parent="1" source="node27" target="node40" edge="1">
          <mxGeometry width="50" height="50" relative="1" as="geometry">
            <Array as="points">
              <mxPoint x="814" y="84" />
              <mxPoint x="534" y="84" />
            </Array>
          </mxGeometry>
        </mxCell>
        <mxCell id="label94" value="isinstanceof" style="edgeLabel;resizable=0;html=1;align=left;verticalAlign=top;strokeColor=default;" parent="edge15" vertex="1" connectable="0">
          <mxGeometry x="423" y="43" as="geometry" />
        </mxCell>
        <mxCell id="edge19" value="" style="html=1;rounded=1;edgeStyle=orthogonalEdgeStyle;dashed=0;startArrow=block;startSize=12;endArrow=none;strokeColor=#595959;exitX=0.750;exitY=0.000;exitDx=0;exitDy=0;entryX=0.500;entryY=1.001;entryDx=0;entryDy=0;" parent="1" source="node14" target="node36" edge="1">
          <mxGeometry width="50" height="50" relative="1" as="geometry">
            <Array as="points">
              <mxPoint x="1685" y="84" />
              <mxPoint x="2075" y="84" />
            </Array>
          </mxGeometry>
        </mxCell>
        <mxCell id="edge14" value="" style="html=1;rounded=1;edgeStyle=orthogonalEdgeStyle;dashed=1;startArrow=classic;startSize=12;endArrow=none;strokeColor=#595959;exitX=0.250;exitY=0.000;exitDx=0;exitDy=0;entryX=0.500;entryY=1.001;entryDx=0;entryDy=0;" parent="1" source="node14" target="node40" edge="1">
          <mxGeometry width="50" height="50" relative="1" as="geometry">
            <Array as="points">
              <mxPoint x="1562" y="84" />
              <mxPoint x="534" y="84" />
            </Array>
          </mxGeometry>
        </mxCell>
        <mxCell id="label88" value="isinstanceof" style="edgeLabel;resizable=0;html=1;align=left;verticalAlign=top;strokeColor=default;" parent="edge14" vertex="1" connectable="0">
          <mxGeometry x="638" y="24" as="geometry" />
        </mxCell>
        <mxCell id="edge12" value="" style="html=1;rounded=1;edgeStyle=orthogonalEdgeStyle;dashed=1;startArrow=classic;startSize=12;endArrow=none;strokeColor=#595959;exitX=0.500;exitY=0.001;exitDx=0;exitDy=0;entryX=0.500;entryY=1.001;entryDx=0;entryDy=0;" parent="1" source="node4" target="node40" edge="1">
          <mxGeometry width="50" height="50" relative="1" as="geometry">
            <Array as="points">
              <mxPoint x="-232" y="84" />
              <mxPoint x="534" y="84" />
            </Array>
          </mxGeometry>
        </mxCell>
        <mxCell id="label76" value="isinstanceof" style="edgeLabel;resizable=0;html=1;align=left;verticalAlign=top;strokeColor=default;" parent="edge12" vertex="1" connectable="0">
          <mxGeometry x="345" y="64" as="geometry" />
        </mxCell>
        <mxCell id="edge2" value="" style="html=1;rounded=1;edgeStyle=orthogonalEdgeStyle;dashed=0;startArrow=block;startSize=12;endArrow=none;strokeColor=#595959;exitX=0.750;exitY=0.000;exitDx=0;exitDy=0;entryX=0.500;entryY=1.001;entryDx=0;entryDy=0;" parent="1" source="node25" target="node4" edge="1">
          <mxGeometry width="50" height="50" relative="1" as="geometry">
            <Array as="points">
              <mxPoint x="-311" y="484" />
              <mxPoint x="-232" y="484" />
            </Array>
          </mxGeometry>
        </mxCell>
        <mxCell id="edge23" value="" style="html=1;rounded=1;edgeStyle=orthogonalEdgeStyle;dashed=1;startArrow=classic;startSize=12;endArrow=none;strokeColor=#595959;exitX=0.250;exitY=0.000;exitDx=0;exitDy=0;entryX=0.500;entryY=1.001;entryDx=0;entryDy=0;" parent="1" source="node25" target="node40" edge="1">
          <mxGeometry width="50" height="50" relative="1" as="geometry">
            <Array as="points">
              <mxPoint x="-492" y="484" />
              <mxPoint x="-413" y="484" />
              <mxPoint x="-413" y="84" />
              <mxPoint x="534" y="84" />
            </Array>
          </mxGeometry>
        </mxCell>
        <mxCell id="label142" value="isinstanceof" style="edgeLabel;resizable=0;html=1;align=left;verticalAlign=top;strokeColor=default;" parent="edge23" vertex="1" connectable="0">
          <mxGeometry x="463" y="74" as="geometry" />
        </mxCell>
        <mxCell id="edge4" value="" style="html=1;rounded=1;edgeStyle=orthogonalEdgeStyle;dashed=0;startArrow=block;startSize=12;endArrow=none;strokeColor=#595959;exitX=0.250;exitY=0.000;exitDx=0;exitDy=0;entryX=0.500;entryY=1.001;entryDx=0;entryDy=0;" parent="1" source="node18" target="node4" edge="1">
          <mxGeometry width="50" height="50" relative="1" as="geometry">
            <Array as="points">
              <mxPoint x="-119" y="484" />
              <mxPoint x="-232" y="484" />
            </Array>
          </mxGeometry>
        </mxCell>
        <mxCell id="edge5" value="" style="html=1;rounded=1;edgeStyle=orthogonalEdgeStyle;dashed=1;startArrow=classic;startSize=12;endArrow=none;strokeColor=#595959;exitX=0.750;exitY=0.000;exitDx=0;exitDy=0;entryX=0.500;entryY=1.001;entryDx=0;entryDy=0;" parent="1" source="node18" target="node40" edge="1">
          <mxGeometry width="50" height="50" relative="1" as="geometry">
            <Array as="points">
              <mxPoint x="42" y="484" />
              <mxPoint x="-40" y="484" />
              <mxPoint x="-40" y="84" />
              <mxPoint x="534" y="84" />
            </Array>
          </mxGeometry>
        </mxCell>
        <mxCell id="label34" value="isinstanceof" style="edgeLabel;resizable=0;html=1;align=left;verticalAlign=top;strokeColor=default;" parent="edge5" vertex="1" connectable="0">
          <mxGeometry x="499" y="24" as="geometry" />
        </mxCell>
        <mxCell id="edge9" value="" style="html=1;rounded=1;edgeStyle=orthogonalEdgeStyle;dashed=0;startArrow=block;startSize=12;endArrow=none;strokeColor=#595959;exitX=0.500;exitY=0.001;exitDx=0;exitDy=0;entryX=0.500;entryY=1.000;entryDx=0;entryDy=0;" parent="1" source="node32" target="node3" edge="1">
          <mxGeometry width="50" height="50" relative="1" as="geometry">
            <Array as="points" />
          </mxGeometry>
        </mxCell>
        <mxCell id="edge22" value="" style="html=1;rounded=1;edgeStyle=orthogonalEdgeStyle;dashed=0;startArrow=block;startSize=12;endArrow=none;strokeColor=#595959;exitX=0.500;exitY=0.000;exitDx=0;exitDy=0;entryX=0.500;entryY=1.001;entryDx=0;entryDy=0;" parent="1" source="node13" target="node19" edge="1">
          <mxGeometry width="50" height="50" relative="1" as="geometry">
            <Array as="points" />
          </mxGeometry>
        </mxCell>
        <mxCell id="edge16" value="" style="html=1;rounded=1;edgeStyle=orthogonalEdgeStyle;dashed=0;startArrow=block;startSize=12;endArrow=none;strokeColor=#595959;exitX=0.500;exitY=0.001;exitDx=0;exitDy=0;entryX=0.500;entryY=1.000;entryDx=0;entryDy=0;" parent="1" source="node12" target="node27" edge="1">
          <mxGeometry width="50" height="50" relative="1" as="geometry">
            <Array as="points" />
          </mxGeometry>
        </mxCell>
        <mxCell id="edge13" value="" style="html=1;rounded=1;edgeStyle=orthogonalEdgeStyle;dashed=0;startArrow=block;startSize=12;endArrow=none;strokeColor=#595959;exitX=0.500;exitY=0.001;exitDx=0;exitDy=0;entryX=0.500;entryY=1.000;entryDx=0;entryDy=0;" parent="1" source="node39" target="node7" edge="1">
          <mxGeometry width="50" height="50" relative="1" as="geometry">
            <Array as="points" />
          </mxGeometry>
        </mxCell>
        <mxCell id="edge11" value="" style="html=1;rounded=1;edgeStyle=orthogonalEdgeStyle;dashed=0;startArrow=block;startSize=12;endArrow=none;strokeColor=#595959;exitX=0.500;exitY=0.001;exitDx=0;exitDy=0;entryX=0.500;entryY=1.000;entryDx=0;entryDy=0;" parent="1" source="node9" target="node6" edge="1">
          <mxGeometry width="50" height="50" relative="1" as="geometry">
            <Array as="points" />
          </mxGeometry>
        </mxCell>
        <mxCell id="edge0" value="" style="html=1;rounded=1;edgeStyle=orthogonalEdgeStyle;dashed=0;startArrow=block;startSize=12;endArrow=none;strokeColor=#595959;exitX=0.500;exitY=0.000;exitDx=0;exitDy=0;entryX=0.500;entryY=1.000;entryDx=0;entryDy=0;" parent="1" source="node17" target="node14" edge="1">
          <mxGeometry width="50" height="50" relative="1" as="geometry">
            <Array as="points" />
          </mxGeometry>
        </mxCell>
        <mxCell id="edge25" value="" style="html=1;rounded=1;edgeStyle=orthogonalEdgeStyle;dashed=0;startArrow=block;startSize=12;endArrow=none;strokeColor=#595959;exitX=0.500;exitY=0.000;exitDx=0;exitDy=0;entryX=0.500;entryY=1.000;entryDx=0;entryDy=0;" parent="1" source="node30" target="node41" edge="1">
          <mxGeometry width="50" height="50" relative="1" as="geometry">
            <Array as="points" />
          </mxGeometry>
        </mxCell>
        <mxCell id="edge18" value="" style="html=1;rounded=1;edgeStyle=orthogonalEdgeStyle;dashed=0;startArrow=block;startSize=12;endArrow=none;strokeColor=#595959;exitX=0.500;exitY=0.001;exitDx=0;exitDy=0;entryX=0.500;entryY=1.000;entryDx=0;entryDy=0;" parent="1" source="node22" target="node25" edge="1">
          <mxGeometry width="50" height="50" relative="1" as="geometry">
            <Array as="points" />
          </mxGeometry>
        </mxCell>
        <mxCell id="edge6" value="" style="html=1;rounded=1;edgeStyle=orthogonalEdgeStyle;dashed=0;startArrow=block;startSize=12;endArrow=none;strokeColor=#595959;exitX=0.500;exitY=0.000;exitDx=0;exitDy=0;entryX=0.500;entryY=1.001;entryDx=0;entryDy=0;" parent="1" source="node20" target="node36" edge="1">
          <mxGeometry width="50" height="50" relative="1" as="geometry">
            <Array as="points">
              <mxPoint x="1922" y="84" />
              <mxPoint x="2075" y="84" />
            </Array>
          </mxGeometry>
        </mxCell>
        <mxCell id="edge8" value="" style="html=1;rounded=1;edgeStyle=orthogonalEdgeStyle;dashed=0;startArrow=block;startSize=12;endArrow=none;strokeColor=#595959;exitX=0.500;exitY=0.000;exitDx=0;exitDy=0;entryX=0.500;entryY=1.001;entryDx=0;entryDy=0;" parent="1" source="node5" target="node36" edge="1">
          <mxGeometry width="50" height="50" relative="1" as="geometry">
            <Array as="points">
              <mxPoint x="2515" y="84" />
              <mxPoint x="2075" y="84" />
            </Array>
          </mxGeometry>
        </mxCell>
        <mxCell id="edge10" value="" style="html=1;rounded=1;edgeStyle=orthogonalEdgeStyle;dashed=0;startArrow=block;startSize=12;endArrow=none;strokeColor=#595959;exitX=0.500;exitY=0.000;exitDx=0;exitDy=0;entryX=0.500;entryY=1.001;entryDx=0;entryDy=0;" parent="1" source="node24" target="node36" edge="1">
          <mxGeometry width="50" height="50" relative="1" as="geometry">
            <Array as="points">
              <mxPoint x="2229" y="84" />
              <mxPoint x="2075" y="84" />
            </Array>
          </mxGeometry>
        </mxCell>
        <mxCell id="D26i1v6Gqlqpehpdv52o-19" value="" style="group" vertex="1" connectable="0" parent="1">
          <mxGeometry x="1832" y="390" width="420" height="400" as="geometry" />
        </mxCell>
        <mxCell id="D26i1v6Gqlqpehpdv52o-10" value="&lt;p style=&quot;margin:0px;margin-top:4px;text-align:center;&quot;&gt;&lt;b&gt;Parser.CommonParsers.CharacterParser&lt;/b&gt;&lt;/p&gt;&lt;hr size=&quot;1&quot;/&gt;&lt;p style=&quot;margin:0 0 0 4px;line-height:1.6;&quot;&gt; map: &lt;br/&gt; BeginSymbol: &lt;br/&gt; EndSymbol: &lt;/p&gt;" style="verticalAlign=top;align=left;overflow=fill;fontSize=14;fontFamily=Helvetica;html=1;rounded=0;shadow=0;comic=0;labelBackgroundColor=none;strokeWidth=1;" vertex="1" parent="D26i1v6Gqlqpehpdv52o-19">
          <mxGeometry x="56" y="32" width="308" height="108" as="geometry" />
        </mxCell>
        <mxCell id="D26i1v6Gqlqpehpdv52o-11" value="&lt;p style=&quot;margin:0px;margin-top:4px;text-align:center;&quot;&gt;&lt;b&gt;Parser.CommonParsers.KeyboardParser&lt;/b&gt;&lt;/p&gt;&lt;hr size=&quot;1&quot;/&gt;&lt;p style=&quot;margin:0 0 0 4px;line-height:1.6;&quot;&gt; map: &lt;/p&gt;" style="verticalAlign=top;align=left;overflow=fill;fontSize=14;fontFamily=Helvetica;html=1;rounded=0;shadow=0;comic=0;labelBackgroundColor=none;strokeWidth=1;" vertex="1" parent="D26i1v6Gqlqpehpdv52o-19">
          <mxGeometry x="56" y="315" width="308" height="58" as="geometry" />
        </mxCell>
        <mxCell id="D26i1v6Gqlqpehpdv52o-12" value="&lt;p style=&quot;margin:0px;margin-top:4px;text-align:center;&quot;&gt;&lt;b&gt;Parser.CommonParsers.LabelParser&lt;/b&gt;&lt;/p&gt;&lt;hr size=&quot;1&quot;/&gt;&lt;p style=&quot;margin:0 0 0 4px;line-height:1.6;&quot;&gt; charset: &lt;br/&gt; reMap: &lt;br/&gt; map: &lt;/p&gt;" style="verticalAlign=top;align=left;overflow=fill;fontSize=14;fontFamily=Helvetica;html=1;rounded=0;shadow=0;comic=0;labelBackgroundColor=none;strokeWidth=1;" vertex="1" parent="D26i1v6Gqlqpehpdv52o-19">
          <mxGeometry x="71" y="168" width="278" height="108" as="geometry" />
        </mxCell>
        <mxCell id="D26i1v6Gqlqpehpdv52o-13" value="" style="whiteSpace=wrap;html=1;rounded=1;glass=0;fillColor=none;strokeColor=#6c8ebf;strokeWidth=5;" vertex="1" parent="D26i1v6Gqlqpehpdv52o-19">
          <mxGeometry width="420" height="400" as="geometry" />
        </mxCell>
        <mxCell id="D26i1v6Gqlqpehpdv52o-34" value="" style="group" vertex="1" connectable="0" parent="1">
          <mxGeometry x="-96" y="1457" width="310" height="210" as="geometry" />
        </mxCell>
        <mxCell id="D26i1v6Gqlqpehpdv52o-29" value="" style="group" vertex="1" connectable="0" parent="D26i1v6Gqlqpehpdv52o-34">
          <mxGeometry x="36" y="30" width="230" height="148" as="geometry" />
        </mxCell>
        <mxCell id="node10" value="&lt;p style=&quot;margin:0px;margin-top:4px;text-align:center;&quot;&gt;&lt;b&gt;Parser.PIIParsers.EmailParser&lt;/b&gt;&lt;/p&gt;&lt;hr size=&quot;1&quot;/&gt;" style="verticalAlign=top;align=left;overflow=fill;fontSize=14;fontFamily=Helvetica;html=1;rounded=0;shadow=0;comic=0;labelBackgroundColor=none;strokeWidth=1;" parent="D26i1v6Gqlqpehpdv52o-29" vertex="1">
          <mxGeometry x="1" width="228" height="30" as="geometry" />
        </mxCell>
        <mxCell id="node38" value="&lt;p style=&quot;margin:0px;margin-top:4px;text-align:center;&quot;&gt;&lt;b&gt;Parser.PIIParsers.Fuzzers&lt;/b&gt;&lt;/p&gt;&lt;hr size=&quot;1&quot;/&gt;" style="verticalAlign=top;align=left;overflow=fill;fontSize=14;fontFamily=Helvetica;html=1;rounded=0;shadow=0;comic=0;labelBackgroundColor=none;strokeWidth=1;" parent="D26i1v6Gqlqpehpdv52o-29" vertex="1">
          <mxGeometry x="15" y="118" width="200" height="30" as="geometry" />
        </mxCell>
        <mxCell id="node35" value="&lt;p style=&quot;margin:0px;margin-top:4px;text-align:center;&quot;&gt;&lt;b&gt;Parser.PIIParsers.LDSStepper&lt;/b&gt;&lt;/p&gt;&lt;hr size=&quot;1&quot;/&gt;" style="verticalAlign=top;align=left;overflow=fill;fontSize=14;fontFamily=Helvetica;html=1;rounded=0;shadow=0;comic=0;labelBackgroundColor=none;strokeWidth=1;" parent="D26i1v6Gqlqpehpdv52o-29" vertex="1">
          <mxGeometry y="59" width="230" height="30" as="geometry" />
        </mxCell>
        <mxCell id="D26i1v6Gqlqpehpdv52o-33" value="" style="group" vertex="1" connectable="0" parent="D26i1v6Gqlqpehpdv52o-34">
          <mxGeometry width="310" height="210" as="geometry" />
        </mxCell>
        <mxCell id="D26i1v6Gqlqpehpdv52o-31" value="" style="whiteSpace=wrap;html=1;rounded=1;glass=0;fillColor=none;strokeColor=#6c8ebf;strokeWidth=5;" vertex="1" parent="D26i1v6Gqlqpehpdv52o-33">
          <mxGeometry width="310" height="210" as="geometry" />
        </mxCell>
        <mxCell id="D26i1v6Gqlqpehpdv52o-32" value="&lt;font color=&quot;#ff0000&quot; style=&quot;font-size: 13px;&quot; face=&quot;Verdana&quot;&gt;Basic Parsers&lt;/font&gt;" style="text;strokeColor=none;align=center;fillColor=none;html=1;verticalAlign=middle;whiteSpace=wrap;rounded=0;" vertex="1" parent="D26i1v6Gqlqpehpdv52o-33">
          <mxGeometry x="10" width="90" height="30" as="geometry" />
        </mxCell>
        <mxCell id="D26i1v6Gqlqpehpdv52o-36" style="edgeStyle=orthogonalEdgeStyle;rounded=0;orthogonalLoop=1;jettySize=auto;html=1;dashed=1;endSize=12;exitX=1;exitY=0.5;exitDx=0;exitDy=0;entryX=0;entryY=0.5;entryDx=0;entryDy=0;endArrow=open;endFill=0;" edge="1" parent="1" source="node26" target="node31">
          <mxGeometry relative="1" as="geometry">
            <mxPoint x="-189" y="1562" as="sourcePoint" />
            <mxPoint x="-475" y="1552" as="targetPoint" />
          </mxGeometry>
        </mxCell>
        <mxCell id="D26i1v6Gqlqpehpdv52o-39" style="edgeStyle=orthogonalEdgeStyle;rounded=0;orthogonalLoop=1;jettySize=auto;html=1;endSize=12;exitX=1;exitY=0.5;exitDx=0;exitDy=0;entryX=0;entryY=0.5;entryDx=0;entryDy=0;endArrow=open;endFill=0;" edge="1" parent="1" source="node34" target="node0">
          <mxGeometry relative="1" as="geometry">
            <mxPoint x="-165" y="1187.0000000000005" as="sourcePoint" />
            <mxPoint x="-64" y="1187.0000000000005" as="targetPoint" />
          </mxGeometry>
        </mxCell>
        <mxCell id="D26i1v6Gqlqpehpdv52o-40" value="&lt;font style=&quot;font-size: 14px;&quot;&gt;1..*&lt;/font&gt;" style="text;strokeColor=none;align=center;fillColor=none;html=1;verticalAlign=middle;whiteSpace=wrap;rounded=0;" vertex="1" parent="1">
          <mxGeometry x="-354.5" y="1291" width="60" height="30" as="geometry" />
        </mxCell>
        <mxCell id="D26i1v6Gqlqpehpdv52o-42" style="edgeStyle=orthogonalEdgeStyle;rounded=0;orthogonalLoop=1;jettySize=auto;html=1;endSize=12;exitX=1;exitY=0.5;exitDx=0;exitDy=0;entryX=0;entryY=0.5;entryDx=0;entryDy=0;endArrow=open;endFill=0;" edge="1" parent="1" source="node23" target="node29">
          <mxGeometry relative="1" as="geometry">
            <mxPoint x="-314.5000000000002" y="1246" as="sourcePoint" />
            <mxPoint x="-144.50000000000023" y="1246" as="targetPoint" />
          </mxGeometry>
        </mxCell>
        <mxCell id="D26i1v6Gqlqpehpdv52o-43" value="&lt;font style=&quot;font-size: 14px;&quot;&gt;1..*&lt;/font&gt;" style="text;strokeColor=none;align=center;fillColor=none;html=1;verticalAlign=middle;whiteSpace=wrap;rounded=0;" vertex="1" parent="1">
          <mxGeometry x="-195.00000000000023" y="1100" width="60" height="30" as="geometry" />
        </mxCell>
        <mxCell id="D26i1v6Gqlqpehpdv52o-45" style="edgeStyle=orthogonalEdgeStyle;rounded=0;orthogonalLoop=1;jettySize=auto;html=1;endSize=12;exitX=1;exitY=0.5;exitDx=0;exitDy=0;entryX=0;entryY=0.5;entryDx=0;entryDy=0;endArrow=open;endFill=0;" edge="1" parent="1" source="node37" target="node23">
          <mxGeometry relative="1" as="geometry">
            <mxPoint x="-658.5" y="1128" as="sourcePoint" />
            <mxPoint x="-503.5" y="1128" as="targetPoint" />
          </mxGeometry>
        </mxCell>
        <mxCell id="D26i1v6Gqlqpehpdv52o-46" value="&lt;font style=&quot;font-size: 14px;&quot;&gt;1..*&lt;/font&gt;" style="text;strokeColor=none;align=center;fillColor=none;html=1;verticalAlign=middle;whiteSpace=wrap;rounded=0;" vertex="1" parent="1">
          <mxGeometry x="-628.5000000000002" y="1100" width="60" height="30" as="geometry" />
        </mxCell>
        <mxCell id="D26i1v6Gqlqpehpdv52o-48" style="edgeStyle=orthogonalEdgeStyle;rounded=0;orthogonalLoop=1;jettySize=auto;html=1;dashed=1;endSize=12;exitX=0.5;exitY=1;exitDx=0;exitDy=0;entryX=0;entryY=0.5;entryDx=0;entryDy=0;endArrow=open;endFill=0;" edge="1" parent="1" source="node16" target="node26">
          <mxGeometry relative="1" as="geometry">
            <mxPoint x="-1065" y="1517.0000000000005" as="sourcePoint" />
            <mxPoint x="-964" y="1517.0000000000005" as="targetPoint" />
          </mxGeometry>
        </mxCell>
        <mxCell id="D26i1v6Gqlqpehpdv52o-49" style="edgeStyle=orthogonalEdgeStyle;rounded=0;orthogonalLoop=1;jettySize=auto;html=1;dashed=1;endSize=12;exitX=0.5;exitY=0;exitDx=0;exitDy=0;entryX=0.5;entryY=1;entryDx=0;entryDy=0;endArrow=open;endFill=0;" edge="1" parent="1" source="node26" target="node34">
          <mxGeometry relative="1" as="geometry">
            <mxPoint x="-665" y="1437.0000000000005" as="sourcePoint" />
            <mxPoint x="-564" y="1437.0000000000005" as="targetPoint" />
          </mxGeometry>
        </mxCell>
        <mxCell id="D26i1v6Gqlqpehpdv52o-51" style="edgeStyle=orthogonalEdgeStyle;rounded=0;orthogonalLoop=1;jettySize=auto;html=1;entryX=0;entryY=0.5;entryDx=0;entryDy=0;dashed=1;endSize=12;endArrow=open;endFill=0;exitX=0.5;exitY=0;exitDx=0;exitDy=0;" edge="1" parent="1" source="node16" target="node37">
          <mxGeometry relative="1" as="geometry">
            <mxPoint x="-1115" y="1237.0588235294117" as="sourcePoint" />
            <mxPoint x="-1014" y="1238.0588235294117" as="targetPoint" />
          </mxGeometry>
        </mxCell>
        <mxCell id="D26i1v6Gqlqpehpdv52o-52" style="edgeStyle=orthogonalEdgeStyle;rounded=0;orthogonalLoop=1;jettySize=auto;html=1;entryX=0.5;entryY=0;entryDx=0;entryDy=0;dashed=1;endSize=12;endArrow=open;endFill=0;exitX=0.5;exitY=1;exitDx=0;exitDy=0;" edge="1" parent="1" source="node33" target="node23">
          <mxGeometry relative="1" as="geometry">
            <mxPoint x="-645" y="967.0588235294117" as="sourcePoint" />
            <mxPoint x="-544" y="968.0588235294117" as="targetPoint" />
          </mxGeometry>
        </mxCell>
        <mxCell id="D26i1v6Gqlqpehpdv52o-53" style="edgeStyle=orthogonalEdgeStyle;rounded=0;orthogonalLoop=1;jettySize=auto;html=1;entryX=0;entryY=0.5;entryDx=0;entryDy=0;dashed=1;endSize=12;endArrow=open;endFill=0;exitX=1;exitY=0.5;exitDx=0;exitDy=0;" edge="1" parent="1" source="node30" target="node8">
          <mxGeometry relative="1" as="geometry">
            <mxPoint x="1070" y="1020.0588235294117" as="sourcePoint" />
            <mxPoint x="1171" y="1021.0588235294117" as="targetPoint" />
          </mxGeometry>
        </mxCell>
        <mxCell id="D26i1v6Gqlqpehpdv52o-55" style="edgeStyle=orthogonalEdgeStyle;rounded=0;orthogonalLoop=1;jettySize=auto;html=1;endSize=12;exitX=0;exitY=0.5;exitDx=0;exitDy=0;entryX=1;entryY=0.5;entryDx=0;entryDy=0;endArrow=open;endFill=0;" edge="1" parent="1" source="node3" target="node19">
          <mxGeometry relative="1" as="geometry">
            <mxPoint x="-1249.5000000000002" y="174" as="sourcePoint" />
            <mxPoint x="-1079.5000000000002" y="174" as="targetPoint" />
          </mxGeometry>
        </mxCell>
        <mxCell id="D26i1v6Gqlqpehpdv52o-56" value="&lt;font style=&quot;font-size: 14px;&quot;&gt;1..*&lt;/font&gt;" style="text;strokeColor=none;align=center;fillColor=none;html=1;verticalAlign=middle;whiteSpace=wrap;rounded=0;container=0;" vertex="1" parent="1">
          <mxGeometry x="-920.0000000000002" y="220" width="60" height="30" as="geometry" />
        </mxCell>
        <mxCell id="D26i1v6Gqlqpehpdv52o-59" style="edgeStyle=orthogonalEdgeStyle;rounded=0;orthogonalLoop=1;jettySize=auto;html=1;endSize=12;exitX=0;exitY=0.5;exitDx=0;exitDy=0;entryX=1;entryY=0.5;entryDx=0;entryDy=0;endArrow=open;endFill=0;" edge="1" parent="1" source="node32" target="node13">
          <mxGeometry relative="1" as="geometry">
            <mxPoint x="-866" y="458.43" as="sourcePoint" />
            <mxPoint x="-940" y="427.43" as="targetPoint" />
          </mxGeometry>
        </mxCell>
        <mxCell id="D26i1v6Gqlqpehpdv52o-60" value="&lt;font style=&quot;font-size: 14px;&quot;&gt;1..*&lt;/font&gt;" style="text;strokeColor=none;align=center;fillColor=none;html=1;verticalAlign=middle;whiteSpace=wrap;rounded=0;container=0;" vertex="1" parent="1">
          <mxGeometry x="-920.0000000000002" y="556" width="60" height="30" as="geometry" />
        </mxCell>
        <mxCell id="D26i1v6Gqlqpehpdv52o-61" style="edgeStyle=orthogonalEdgeStyle;rounded=0;orthogonalLoop=1;jettySize=auto;html=1;entryX=1;entryY=0.5;entryDx=0;entryDy=0;dashed=1;endSize=12;endArrow=open;endFill=0;exitX=0;exitY=0.5;exitDx=0;exitDy=0;" edge="1" parent="1" source="node4" target="node3">
          <mxGeometry relative="1" as="geometry">
            <mxPoint x="-540" y="190.0588235294117" as="sourcePoint" />
            <mxPoint x="-439" y="191.0588235294117" as="targetPoint" />
          </mxGeometry>
        </mxCell>
        <mxCell id="D26i1v6Gqlqpehpdv52o-62" style="edgeStyle=orthogonalEdgeStyle;rounded=0;orthogonalLoop=1;jettySize=auto;html=1;entryX=0.5;entryY=1;entryDx=0;entryDy=0;dashed=1;endSize=12;endArrow=open;endFill=0;exitX=0;exitY=0.75;exitDx=0;exitDy=0;" edge="1" parent="1" source="node22" target="node32">
          <mxGeometry relative="1" as="geometry">
            <mxPoint x="-760" y="810.0588235294117" as="sourcePoint" />
            <mxPoint x="-659" y="811.0588235294117" as="targetPoint" />
          </mxGeometry>
        </mxCell>
        <mxCell id="D26i1v6Gqlqpehpdv52o-63" style="edgeStyle=orthogonalEdgeStyle;rounded=0;orthogonalLoop=1;jettySize=auto;html=1;dashed=1;endSize=12;exitX=0.5;exitY=1;exitDx=0;exitDy=0;entryX=0.5;entryY=0;entryDx=0;entryDy=0;" edge="1" parent="1" source="node40" target="node7">
          <mxGeometry relative="1" as="geometry">
            <mxPoint x="220" y="440.00000000000045" as="sourcePoint" />
            <mxPoint x="321" y="440.00000000000045" as="targetPoint" />
          </mxGeometry>
        </mxCell>
        <mxCell id="D26i1v6Gqlqpehpdv52o-64" style="edgeStyle=orthogonalEdgeStyle;rounded=0;orthogonalLoop=1;jettySize=auto;html=1;dashed=1;endSize=12;exitX=0.5;exitY=1;exitDx=0;exitDy=0;entryX=0.5;entryY=0;entryDx=0;entryDy=0;" edge="1" parent="1" source="node40" target="node6">
          <mxGeometry relative="1" as="geometry">
            <mxPoint x="1000" y="170.00000000000045" as="sourcePoint" />
            <mxPoint x="1101" y="170.00000000000045" as="targetPoint" />
          </mxGeometry>
        </mxCell>
        <mxCell id="D26i1v6Gqlqpehpdv52o-66" style="edgeStyle=orthogonalEdgeStyle;rounded=0;orthogonalLoop=1;jettySize=auto;html=1;endSize=12;exitX=1;exitY=0.75;exitDx=0;exitDy=0;entryX=-0.01;entryY=0.574;entryDx=0;entryDy=0;endArrow=open;endFill=0;entryPerimeter=0;" edge="1" parent="1" source="node7" target="node27">
          <mxGeometry relative="1" as="geometry">
            <mxPoint x="536.4999999999998" y="283.82" as="sourcePoint" />
            <mxPoint x="706.4999999999998" y="283.82" as="targetPoint" />
          </mxGeometry>
        </mxCell>
        <mxCell id="D26i1v6Gqlqpehpdv52o-67" value="&lt;font style=&quot;font-size: 14px;&quot;&gt;1..*&lt;/font&gt;" style="text;strokeColor=none;align=center;fillColor=none;html=1;verticalAlign=middle;whiteSpace=wrap;rounded=0;" vertex="1" parent="1">
          <mxGeometry x="586.4999999999998" y="249.82" width="60" height="30" as="geometry" />
        </mxCell>
        <mxCell id="D26i1v6Gqlqpehpdv52o-68" style="edgeStyle=orthogonalEdgeStyle;rounded=0;orthogonalLoop=1;jettySize=auto;html=1;endSize=12;exitX=1;exitY=0.5;exitDx=0;exitDy=0;entryX=-0.003;entryY=0.668;entryDx=0;entryDy=0;endArrow=open;endFill=0;entryPerimeter=0;" edge="1" parent="1" source="node27" target="node6">
          <mxGeometry relative="1" as="geometry">
            <mxPoint x="943.4999999999998" y="284" as="sourcePoint" />
            <mxPoint x="1113.4999999999998" y="284" as="targetPoint" />
          </mxGeometry>
        </mxCell>
        <mxCell id="D26i1v6Gqlqpehpdv52o-69" value="&lt;font style=&quot;font-size: 14px;&quot;&gt;1..*&lt;/font&gt;" style="text;strokeColor=none;align=center;fillColor=none;html=1;verticalAlign=middle;whiteSpace=wrap;rounded=0;" vertex="1" parent="1">
          <mxGeometry x="993.4999999999998" y="250" width="60" height="30" as="geometry" />
        </mxCell>
        <mxCell id="D26i1v6Gqlqpehpdv52o-71" style="edgeStyle=orthogonalEdgeStyle;rounded=0;orthogonalLoop=1;jettySize=auto;html=1;endSize=12;exitX=1;exitY=0.5;exitDx=0;exitDy=0;entryX=0;entryY=0.5;entryDx=0;entryDy=0;endArrow=open;endFill=0;" edge="1" parent="1" source="node39" target="node12">
          <mxGeometry relative="1" as="geometry">
            <mxPoint x="540.4999999999998" y="613" as="sourcePoint" />
            <mxPoint x="710.4999999999998" y="613" as="targetPoint" />
          </mxGeometry>
        </mxCell>
        <mxCell id="D26i1v6Gqlqpehpdv52o-72" value="&lt;font style=&quot;font-size: 14px;&quot;&gt;1..*&lt;/font&gt;" style="text;strokeColor=none;align=center;fillColor=none;html=1;verticalAlign=middle;whiteSpace=wrap;rounded=0;" vertex="1" parent="1">
          <mxGeometry x="590.4999999999998" y="579" width="60" height="30" as="geometry" />
        </mxCell>
        <mxCell id="D26i1v6Gqlqpehpdv52o-73" style="edgeStyle=orthogonalEdgeStyle;rounded=0;orthogonalLoop=1;jettySize=auto;html=1;endSize=12;exitX=1;exitY=0.5;exitDx=0;exitDy=0;entryX=0;entryY=0.5;entryDx=0;entryDy=0;endArrow=open;endFill=0;" edge="1" parent="1" source="node12" target="node9">
          <mxGeometry relative="1" as="geometry">
            <mxPoint x="945.4999999999998" y="613" as="sourcePoint" />
            <mxPoint x="1115.4999999999998" y="613" as="targetPoint" />
          </mxGeometry>
        </mxCell>
        <mxCell id="D26i1v6Gqlqpehpdv52o-74" value="&lt;font style=&quot;font-size: 14px;&quot;&gt;1..*&lt;/font&gt;" style="text;strokeColor=none;align=center;fillColor=none;html=1;verticalAlign=middle;whiteSpace=wrap;rounded=0;" vertex="1" parent="1">
          <mxGeometry x="995.4999999999998" y="579" width="60" height="30" as="geometry" />
        </mxCell>
        <mxCell id="D26i1v6Gqlqpehpdv52o-76" value="" style="whiteSpace=wrap;html=1;rounded=0;glass=0;fillColor=none;strokeColor=#6666FF;strokeWidth=3;dashed=1;shadow=0;" vertex="1" parent="1">
          <mxGeometry x="-1250" y="170" width="1410" height="700" as="geometry" />
        </mxCell>
        <mxCell id="D26i1v6Gqlqpehpdv52o-77" value="&lt;font color=&quot;#ff0000&quot; style=&quot;font-size: 16px;&quot; face=&quot;Verdana&quot;&gt;Preprocessor&lt;/font&gt;" style="text;strokeColor=none;align=center;fillColor=none;html=1;verticalAlign=middle;whiteSpace=wrap;rounded=0;" vertex="1" parent="1">
          <mxGeometry x="-1230" y="179" width="90" height="30" as="geometry" />
        </mxCell>
        <mxCell id="D26i1v6Gqlqpehpdv52o-78" value="" style="whiteSpace=wrap;html=1;rounded=0;glass=0;fillColor=none;strokeColor=#00CC66;strokeWidth=3;dashed=1;shadow=0;" vertex="1" parent="1">
          <mxGeometry x="-1270" y="893" width="1540" height="910" as="geometry" />
        </mxCell>
        <mxCell id="D26i1v6Gqlqpehpdv52o-80" value="&lt;font color=&quot;#ff0000&quot; style=&quot;font-size: 16px;&quot; face=&quot;Verdana&quot;&gt;Structure Parser&lt;/font&gt;" style="text;strokeColor=none;align=center;fillColor=none;html=1;verticalAlign=middle;whiteSpace=wrap;rounded=0;" vertex="1" parent="1">
          <mxGeometry x="-1255" y="920" width="160" height="30" as="geometry" />
        </mxCell>
        <mxCell id="D26i1v6Gqlqpehpdv52o-83" value="" style="whiteSpace=wrap;html=1;rounded=0;glass=0;fillColor=none;strokeColor=#009999;strokeWidth=3;dashed=1;shadow=0;" vertex="1" parent="1">
          <mxGeometry x="520" y="760" width="980" height="770" as="geometry" />
        </mxCell>
        <mxCell id="D26i1v6Gqlqpehpdv52o-85" value="&lt;font color=&quot;#ff0000&quot; style=&quot;font-size: 16px;&quot; face=&quot;Verdana&quot;&gt;Resolver&lt;/font&gt;" style="text;strokeColor=none;align=center;fillColor=none;html=1;verticalAlign=middle;whiteSpace=wrap;rounded=0;" vertex="1" parent="1">
          <mxGeometry x="540" y="780" width="90" height="30" as="geometry" />
        </mxCell>
        <mxCell id="D26i1v6Gqlqpehpdv52o-86" value="" style="whiteSpace=wrap;html=1;rounded=0;glass=0;fillColor=none;strokeColor=#4C0099;strokeWidth=3;dashed=1;shadow=0;" vertex="1" parent="1">
          <mxGeometry x="290" y="160" width="1100" height="510" as="geometry" />
        </mxCell>
        <mxCell id="D26i1v6Gqlqpehpdv52o-87" value="&lt;font color=&quot;#ff0000&quot; style=&quot;font-size: 16px;&quot; face=&quot;Verdana&quot;&gt;Training data types&lt;/font&gt;" style="text;strokeColor=none;align=center;fillColor=none;html=1;verticalAlign=middle;whiteSpace=wrap;rounded=0;" vertex="1" parent="1">
          <mxGeometry x="300" y="167" width="170" height="30" as="geometry" />
        </mxCell>
        <mxCell id="D26i1v6Gqlqpehpdv52o-89" value="" style="whiteSpace=wrap;html=1;rounded=0;glass=0;fillColor=none;strokeColor=#6666FF;strokeWidth=3;dashed=1;shadow=0;" vertex="1" parent="1">
          <mxGeometry x="1500" y="100" width="1190" height="700" as="geometry" />
        </mxCell>
        <mxCell id="D26i1v6Gqlqpehpdv52o-90" value="&lt;font face=&quot;Verdana&quot; color=&quot;#ff0000&quot;&gt;&lt;span style=&quot;font-size: 16px;&quot;&gt;Training Parser&lt;/span&gt;&lt;/font&gt;" style="text;strokeColor=none;align=center;fillColor=none;html=1;verticalAlign=middle;whiteSpace=wrap;rounded=0;" vertex="1" parent="1">
          <mxGeometry x="1519" y="120" width="141" height="30" as="geometry" />
        </mxCell>
      </root>
    </mxGraphModel>
  </diagram>
</mxfile>
